<?xml version="1.0" encoding="utf-8"?>
<!-- Generator: Adobe Illustrator 16.0.0, SVG Export Plug-In . SVG Version: 6.00 Build 0)  -->
<!DOCTYPE svg PUBLIC "-//W3C//DTD SVG 1.1//EN" "http://www.w3.org/Graphics/SVG/1.1/DTD/svg11.dtd">
<svg version="1.1" id="Layer_1" xmlns="http://www.w3.org/2000/svg" xmlns:xlink="http://www.w3.org/1999/xlink" x="0px" y="0px"
	 width="334px" height="253px" viewBox="0 0 334 253" enable-background="new 0 0 334 253" xml:space="preserve">
<g>
	<defs>
		<rect id="SVGID_1_" width="334" height="253"/>
	</defs>
	<clipPath id="SVGID_2_">
		<use xlink:href="#SVGID_1_"  overflow="visible"/>
	</clipPath>
	<g clip-path="url(#SVGID_2_)">
		<path fill="#042E3A" d="M67.6,129.767V4.271h48.573c8.44,0,16.254,1.417,23.436,4.252s13.325,6.898,18.428,12.19
			s9.102,11.718,12.001,19.278c2.896,7.56,4.347,16.13,4.347,25.704c0,9.577-1.293,18.303-3.874,26.176
			c-2.584,7.876-6.27,14.618-11.057,20.223c-4.79,5.608-10.522,9.955-17.199,13.041c-6.68,3.088-14.051,4.63-22.113,4.63H67.6z
			 M114.85,108.41c11.464,0,19.78-3.559,24.948-10.679c5.165-7.117,7.749-17.795,7.749-32.035c0-7.055-0.632-13.103-1.89-18.144
			c-1.261-5.038-3.307-9.167-6.142-12.38c-2.835-3.213-6.458-5.543-10.868-6.993c-4.412-1.447-9.766-2.174-16.065-2.174H93.115
			v82.404H114.85z"/>
	</g>
</g>
<g>
	<path fill="#D8B116" d="M244.664,94.314c-0.632-6.426-2.962-11.213-6.993-14.364c-4.034-3.148-10.082-4.725-18.144-4.725
		c-14.869,0-22.303,5.103-22.303,15.309c0,3.656,1.542,6.709,4.631,9.167c3.086,2.457,8.032,4.506,14.837,6.143
		c8.062,1.89,15.055,3.656,20.979,5.292c5.921,1.639,11.34,3.529,16.254,5.67c2.771,1.134,5.387,2.551,7.844,4.252
		s4.536,3.813,6.237,6.332c1.7,2.521,3.053,5.546,4.063,9.072c1.007,3.528,1.512,7.813,1.512,12.852
		c0,6.048-1.261,11.405-3.78,16.065c-2.521,4.663-5.924,8.6-10.206,11.813c-4.285,3.213-9.326,5.67-15.12,7.371
		c-5.797,1.7-11.906,2.551-18.333,2.551c-18.271,0-32.006-3.528-41.202-10.584c-9.198-7.055-14.051-17.512-14.553-31.374h25.326
		c0.124,6.427,2.74,11.5,7.844,15.215c5.103,3.718,11.496,5.575,19.184,5.575c8.315,0,14.614-1.512,18.899-4.536
		c4.282-3.023,6.427-7.116,6.427-12.284c0-2.015-0.255-3.875-0.757-5.576c-0.505-1.701-1.482-3.242-2.929-4.63
		c-1.45-1.386-3.435-2.614-5.954-3.686c-2.521-1.069-5.797-2.047-9.828-2.93c-9.577-2.014-17.86-4.063-24.854-6.143
		s-12.757-4.66-17.293-7.749c-4.536-3.086-7.876-6.833-10.018-11.246c-2.144-4.409-3.213-10.017-3.213-16.821
		c0-5.165,0.945-10.017,2.835-14.553c1.891-4.536,4.787-8.472,8.694-11.813c3.904-3.337,8.724-5.983,14.458-7.938
		c5.732-1.952,12.504-2.929,20.318-2.929c7.56,0,14.363,0.977,20.411,2.929c6.049,1.955,11.246,4.725,15.593,8.316
		c4.348,3.591,7.717,7.938,10.111,13.041c2.393,5.103,3.716,10.744,3.97,16.916H244.664z"/>
</g>
<polygon fill="#0A6D8A" points="93,109 93,89 68,89 68,130 111,130 111,109 "/>
<g>
	<defs>
		<rect id="SVGID_3_" width="334" height="253"/>
	</defs>
	<clipPath id="SVGID_4_">
		<use xlink:href="#SVGID_3_"  overflow="visible"/>
	</clipPath>
	<path clip-path="url(#SVGID_4_)" fill="#A58111" d="M245,95h26c-0.08-4.511-0.901-12.738-6-21c-10.794-17.49-31.257-19.743-34-20
		c-1,7.333-2,14.667-3,22c1.912,0.481,9.508,2.628,14,10C244.113,89.468,244.775,92.838,245,95"/>
	<g clip-path="url(#SVGID_4_)">
		<path fill="#D8B116" d="M10.427,239.501v-37.848h14.649c2.545,0,4.902,0.427,7.068,1.282c2.166,0.854,4.019,2.08,5.558,3.677
			c1.539,1.596,2.745,3.533,3.62,5.813c0.874,2.28,1.311,4.865,1.311,7.752c0,2.889-0.39,5.521-1.168,7.895
			c-0.779,2.376-1.891,4.409-3.334,6.1c-1.445,1.69-3.173,3.002-5.187,3.933c-2.015,0.932-4.238,1.396-6.669,1.396H10.427z
			 M24.677,233.06c3.458,0,5.965-1.073,7.524-3.22c1.558-2.146,2.337-5.367,2.337-9.662c0-2.128-0.19-3.951-0.57-5.472
			c-0.38-1.52-0.998-2.765-1.853-3.733s-1.948-1.672-3.277-2.109c-1.331-0.437-2.945-0.655-4.845-0.655h-5.871v24.852H24.677z"/>
		<path fill="#D8B116" d="M51.694,227.417c0.114,2.129,0.731,3.819,1.853,5.073c1.12,1.254,2.593,1.881,4.417,1.881
			c1.215,0,2.289-0.275,3.22-0.826c0.931-0.551,1.529-1.32,1.795-2.309h7.638c-0.875,2.888-2.394,5.111-4.56,6.669
			c-2.166,1.559-4.75,2.337-7.752,2.337c-9.348,0-14.022-5.092-14.022-15.276c0-2.166,0.304-4.122,0.912-5.871
			c0.607-1.747,1.491-3.249,2.65-4.503c1.159-1.254,2.574-2.213,4.247-2.878c1.672-0.665,3.591-0.998,5.757-0.998
			c4.332,0,7.609,1.388,9.833,4.161c2.223,2.774,3.334,6.954,3.334,12.54H51.694z M63.379,222.743
			c-0.039-1.026-0.219-1.929-0.542-2.708c-0.324-0.778-0.751-1.425-1.283-1.938c-0.533-0.513-1.14-0.893-1.824-1.141
			c-0.684-0.246-1.387-0.37-2.109-0.37c-1.482,0-2.764,0.542-3.847,1.625s-1.701,2.593-1.853,4.531H63.379z"/>
		<path fill="#D8B116" d="M90.168,219.95c-0.19-1.292-0.675-2.232-1.454-2.821c-0.779-0.589-1.966-0.884-3.563-0.884
			c-1.52,0-2.67,0.181-3.448,0.541c-0.779,0.362-1.168,0.979-1.168,1.853c0,0.761,0.389,1.368,1.168,1.824
			c0.778,0.456,1.909,0.894,3.391,1.312c2.432,0.684,4.484,1.264,6.156,1.738c1.672,0.476,3.011,1.035,4.019,1.682
			c1.006,0.646,1.729,1.453,2.166,2.422c0.437,0.97,0.655,2.271,0.655,3.904c0,2.509-1.045,4.589-3.135,6.242
			c-2.09,1.652-5.187,2.479-9.291,2.479c-2.015,0-3.839-0.229-5.472-0.685c-1.634-0.456-3.031-1.111-4.189-1.966
			c-1.16-0.855-2.052-1.881-2.679-3.078c-0.627-1.197-0.96-2.537-0.998-4.019h7.638c0,1.33,0.522,2.356,1.567,3.078
			c1.045,0.722,2.403,1.083,4.076,1.083c1.405,0,2.612-0.219,3.62-0.656c1.006-0.436,1.51-1.111,1.51-2.023
			c0-1.025-0.37-1.767-1.111-2.223s-1.872-0.854-3.392-1.197c-2.736-0.607-4.94-1.244-6.612-1.909
			c-1.673-0.664-2.974-1.396-3.905-2.194c-0.931-0.798-1.559-1.672-1.881-2.622c-0.323-0.949-0.484-2.014-0.484-3.192
			c0-1.063,0.218-2.07,0.655-3.021c0.437-0.949,1.13-1.786,2.081-2.508c0.95-0.722,2.185-1.302,3.705-1.739
			c1.52-0.436,3.382-0.655,5.586-0.655c4.027,0,6.973,0.817,8.835,2.451c1.861,1.635,2.888,3.896,3.078,6.783H90.168z"/>
		<path fill="#D8B116" d="M100.086,208.094v-6.896h7.41v6.896H100.086z M100.086,239.501v-28.044h7.41v28.044H100.086z"/>
		<path fill="#D8B116" d="M130.182,235.739c-0.533,1.254-1.492,2.232-2.879,2.936c-1.387,0.703-2.992,1.054-4.816,1.054
			c-2.318,0-4.266-0.407-5.842-1.225c-1.578-0.817-2.85-1.891-3.819-3.221c-0.969-1.33-1.672-2.869-2.109-4.617
			c-0.437-1.747-0.655-3.534-0.655-5.358c0-2.166,0.322-4.15,0.969-5.956c0.646-1.805,1.52-3.344,2.622-4.617
			c1.102-1.272,2.394-2.261,3.876-2.964s3.078-1.055,4.788-1.055c3.496,0,6.118,1.406,7.866,4.218v-3.477h7.41v28.329
			c0,2.128-0.361,3.999-1.083,5.614c-0.722,1.615-1.71,2.964-2.964,4.047s-2.736,1.91-4.446,2.479
			c-1.71,0.57-3.534,0.855-5.472,0.855s-3.743-0.276-5.415-0.827c-1.672-0.551-3.106-1.33-4.304-2.337
			c-1.197-1.007-2.137-2.232-2.821-3.676c-0.684-1.445-1.026-3.078-1.026-4.902h6.897c0,1.71,0.56,3.03,1.682,3.962
			c1.12,0.931,2.612,1.396,4.474,1.396c1.976,0,3.648-0.542,5.016-1.625s2.052-2.556,2.052-4.417V235.739z M124.083,233.915
			c1.824,0,3.334-0.693,4.531-2.08c1.197-1.387,1.796-3.278,1.796-5.672c0-6.004-2.109-9.006-6.327-9.006
			c-4.218,0-6.327,2.85-6.327,8.55c0,2.508,0.599,4.503,1.795,5.985C120.748,233.174,122.258,233.915,124.083,233.915z"/>
		<path fill="#D8B116" d="M158.51,239.501v-16.986c0-2.166-0.362-3.628-1.083-4.389c-0.722-0.76-1.958-1.14-3.705-1.14
			c-3.838,0-5.757,2.146-5.757,6.44v16.074h-7.41v-28.044h7.068v4.104c0.874-1.596,2.033-2.802,3.477-3.619
			c1.444-0.816,3.306-1.226,5.586-1.226c1.33,0,2.565,0.199,3.705,0.599c1.14,0.399,2.118,0.997,2.936,1.796
			c0.817,0.798,1.462,1.776,1.938,2.936c0.475,1.159,0.712,2.499,0.712,4.019v19.437H158.51z"/>
	</g>
	<g clip-path="url(#SVGID_4_)">
		<path fill="#042E3A" d="M191.857,213.852c-0.19-1.938-0.894-3.382-2.109-4.332c-1.217-0.949-3.04-1.425-5.472-1.425
			c-4.484,0-6.727,1.539-6.727,4.616c0,1.103,0.466,2.023,1.396,2.765c0.932,0.741,2.423,1.359,4.475,1.853
			c2.432,0.57,4.541,1.103,6.327,1.597s3.42,1.063,4.902,1.71c0.835,0.342,1.624,0.77,2.365,1.282s1.368,1.149,1.881,1.909
			c0.514,0.761,0.921,1.673,1.226,2.736c0.304,1.064,0.456,2.356,0.456,3.876c0,1.824-0.38,3.439-1.14,4.845
			c-0.761,1.406-1.787,2.594-3.078,3.563c-1.292,0.969-2.813,1.71-4.561,2.223c-1.748,0.514-3.591,0.77-5.528,0.77
			c-5.511,0-9.652-1.063-12.426-3.191c-2.774-2.128-4.238-5.281-4.39-9.462h7.639c0.037,1.938,0.826,3.468,2.365,4.588
			c1.539,1.122,3.467,1.682,5.785,1.682c2.508,0,4.408-0.456,5.7-1.368c1.291-0.911,1.938-2.146,1.938-3.705
			c0-0.606-0.076-1.168-0.228-1.681c-0.152-0.514-0.447-0.979-0.884-1.396c-0.438-0.418-1.035-0.788-1.795-1.112
			c-0.761-0.322-1.749-0.617-2.964-0.883c-2.889-0.607-5.387-1.226-7.496-1.853c-2.108-0.627-3.848-1.405-5.216-2.337
			c-1.367-0.931-2.375-2.062-3.021-3.392c-0.646-1.33-0.969-3.021-0.969-5.073c0-1.558,0.285-3.021,0.854-4.389
			c0.57-1.368,1.444-2.556,2.622-3.563s2.631-1.805,4.36-2.395c1.729-0.589,3.771-0.883,6.128-0.883c2.28,0,4.332,0.294,6.156,0.883
			c1.823,0.59,3.392,1.425,4.702,2.508s2.327,2.395,3.05,3.934c0.721,1.539,1.12,3.24,1.196,5.102H191.857z"/>
		<path fill="#042E3A" d="M218.305,222.06h6.897v7.979c0,1.482-0.22,2.898-0.655,4.247c-0.438,1.349-1.122,2.546-2.053,3.591
			c-0.932,1.046-2.108,1.872-3.534,2.479c-1.425,0.607-3.126,0.912-5.101,0.912c-2.053,0-3.801-0.305-5.244-0.912
			c-1.445-0.607-2.632-1.425-3.563-2.451c-0.932-1.026-1.606-2.223-2.023-3.591c-0.419-1.368-0.627-2.812-0.627-4.332v-25.08h7.296
			v7.581h15.504v5.244h-15.504v11.514c0,1.787,0.332,3.164,0.997,4.133c0.664,0.969,1.757,1.453,3.277,1.453
			c1.482,0,2.574-0.475,3.277-1.425c0.703-0.949,1.055-2.299,1.055-4.047V222.06z"/>
		<path fill="#042E3A" d="M246.12,240.527v-3.933c-1.9,3.116-4.808,4.674-8.721,4.674c-1.406,0-2.688-0.248-3.848-0.741
			s-2.157-1.197-2.992-2.109c-0.837-0.912-1.492-1.994-1.967-3.249c-0.476-1.254-0.712-2.659-0.712-4.218v-18.468h7.409v17.328
			c0,3.496,1.577,5.244,4.731,5.244c1.899,0,3.334-0.599,4.304-1.796c0.969-1.197,1.453-2.727,1.453-4.589v-16.188h7.354v28.044
			H246.12z"/>
		<path fill="#042E3A" d="M275.532,240.527l-0.057-3.42c-1.71,2.774-4.313,4.161-7.81,4.161c-1.786,0-3.42-0.342-4.901-1.026
			c-1.482-0.684-2.756-1.672-3.819-2.964c-1.064-1.291-1.9-2.869-2.508-4.731c-0.608-1.861-0.912-3.97-0.912-6.326
			c0-2.128,0.257-4.076,0.77-5.843s1.263-3.296,2.251-4.589c0.988-1.291,2.195-2.289,3.62-2.992s3.049-1.055,4.873-1.055
			c3.458,0,6.231,1.464,8.322,4.389v-13.907h7.296v38.304H275.532z M269.376,235.227c1.786,0,3.277-0.741,4.475-2.224
			c1.197-1.481,1.796-3.42,1.796-5.813c0-6.079-2.072-9.12-6.213-9.12c-4.257,0-6.385,2.889-6.385,8.664
			c0,2.508,0.589,4.551,1.768,6.128C265.994,234.438,267.514,235.227,269.376,235.227z"/>
		<path fill="#042E3A" d="M285.792,209.12v-6.896h7.41v6.896H285.792z M285.792,240.527v-28.044h7.41v28.044H285.792z"/>
		<path fill="#042E3A" d="M310.131,241.269c-2.28,0-4.313-0.361-6.1-1.083s-3.297-1.729-4.531-3.021
			c-1.235-1.291-2.176-2.85-2.821-4.674c-0.646-1.824-0.969-3.819-0.969-5.985c0-2.203,0.332-4.218,0.997-6.042
			c0.664-1.823,1.624-3.381,2.879-4.674c1.254-1.291,2.764-2.289,4.531-2.992c1.767-0.703,3.771-1.055,6.014-1.055
			c2.203,0,4.18,0.352,5.928,1.055c1.747,0.703,3.239,1.691,4.475,2.964c1.234,1.273,2.185,2.821,2.85,4.646
			s0.998,3.857,0.998,6.099c0,2.243-0.333,4.267-0.998,6.071s-1.615,3.354-2.85,4.646c-1.235,1.292-2.736,2.289-4.503,2.992
			C314.263,240.917,312.297,241.269,310.131,241.269z M310.131,235.056c4.521,0,6.782-2.851,6.782-8.551
			c0-5.661-2.261-8.492-6.782-8.492c-4.523,0-6.783,2.831-6.783,8.492C303.348,232.205,305.607,235.056,310.131,235.056z"/>
	</g>
</g>
</svg>
